<svg xmlns="http://www.w3.org/2000/svg" xmlns:xlink="http://www.w3.org/1999/xlink" width="14" height="14" viewBox="0 0 14 14"><defs><path id="tv59a" d="M789 788.516c0-.758.758-1.516 1.516-1.516h10.914c.757 0 1.515.758 1.515 1.516s-.758 1.516-1.515 1.516h-10.914c-.758 0-1.516-.758-1.516-1.516z"/><path id="tv59b" d="M789 793.973c0-.758.758-1.516 1.516-1.516h10.914c.757 0 1.515.758 1.515 1.516s-.758 1.515-1.515 1.515h-10.914c-.758 0-1.516-.757-1.516-1.515z"/><path id="tv59c" d="M789 799.43c0-.758.758-1.516 1.516-1.516h10.914c.757 0 1.515.758 1.515 1.516 0 .757-.758 1.515-1.515 1.515h-10.914c-.758 0-1.516-.758-1.516-1.515z"/></defs><g><g transform="translate(-789 -787)"><g><use fill="#e80000" xlink:href="#tv59a"/></g><g><use fill="#e80000" xlink:href="#tv59b"/></g><g><use fill="#e80000" xlink:href="#tv59c"/></g></g></g></svg>