<svg xmlns="http://www.w3.org/2000/svg" xmlns:xlink="http://www.w3.org/1999/xlink" width="75" height="51" viewBox="0 0 75 51"><defs><path id="7sooa" d="M474.875 881.042zm-3.002 0a3.14 3.14 0 0 1-2.926-2.028l-6.572-17.525a3.103 3.103 0 0 1 .088-2.405 3.105 3.105 0 0 1 1.77-1.63l10.642-3.869v27.457zm-10.243-.127c-2.082-2.785-6.595-6.511-10.992-10.135-2.931-2.415-5.7-4.696-7.47-6.468a1.57 1.57 0 0 0-1.843-.273c-1.591.853-2.308 1.205-4.106 1.385-.479.05-.91.315-1.165.722-1.226 1.944-4.632 2.869-5.712 2.194-.613-.384-.732-.775-.766-1.072-.15-1.33 1.195-3.63 3.427-5.864 5.529-5.529 9.48-6.61 14.594-3.974 4.858 2.505 9.652 3.921 11.665 4.456.058.234.1.47.186.7l6.067 16.18zm-2.68 5.025c-.53.406-1.272.632-1.601.302-.017-.017-.043-.015-.06-.031-.03-.028-.045-.065-.078-.091-1.117-.882-6.121-6.003-9.214-9.228a1.558 1.558 0 0 0-2.208-.048 1.56 1.56 0 0 0-.048 2.208c.726.758 6.554 6.827 8.887 8.95-.175.686-.81 1.11-1.134 1.272-1 .502-2.044.418-2.435.055-.012-.011-.029-.01-.04-.02-.02-.018-.028-.042-.049-.058-1.873-1.497-6.575-6.493-7.638-7.65a1.563 1.563 0 0 0-2.301 2.116c.051.055 4.658 5.025 7.246 7.333-.254.731-.772 1.336-1.437 1.63-.49.218-1.258.33-2.135-.318-2.244-1.903-6.747-6.696-7.632-7.644a1.562 1.562 0 0 0-2.283 2.133c1.05 1.124 4.154 4.413 6.513 6.64-.264.033-.54.05-.803.05-1.035 0-2.812-.66-3.711-1.25-1.096-.72-7.974-5.854-13.914-10.828-.9-.754-2.95-2.296-4.827-3.706a311.4 311.4 0 0 1-2.616-1.977l5.85-15.603c1.52-.066 3.544-.241 5.686-.43 1.212-.107 2.425-.211 3.585-.302-1.782 1.83-4.431 5.106-4.082 8.177.16 1.397.925 2.562 2.214 3.367 2.553 1.598 7.279.258 9.555-2.542 1.47-.212 2.463-.587 3.546-1.124 1.831 1.72 4.286 3.744 6.865 5.87 4.49 3.698 9.578 7.891 10.924 10.243.749 1.308-.29 2.248-.626 2.504zm-46.897-10.051a3.14 3.14 0 0 1-2.927 2.028h-3.001V850.46l10.641 3.87c.79.288 1.42.867 1.77 1.63.353.762.383 1.617.089 2.403zm65.28-25.815a1.55 1.55 0 0 0-1.43-.187l-12.738 4.632a6.204 6.204 0 0 0-3.54 3.256c-.132.286-.218.584-.305.88-2.187-.621-6.252-1.92-10.292-4.002-6.104-3.145-10.768-1.591-14.768 1.46-2.027.04-4.82.28-7.566.521-1.752.155-3.407.297-4.75.379a6.246 6.246 0 0 0-.57-2.362 6.203 6.203 0 0 0-3.54-3.257l-12.737-4.632a1.56 1.56 0 0 0-2.097 1.467v31.25c0 .864.699 1.563 1.563 1.563h4.563a6.284 6.284 0 0 0 4.915-2.394c.621.473 1.358 1.027 2.13 1.607 1.824 1.371 3.82 2.868 4.695 3.602 5.819 4.87 12.813 10.13 14.206 11.046 1.302.854 3.646 1.764 5.428 1.764.697 0 2.453 0 3.686-1.042a5.02 5.02 0 0 0 3.916-.087c1.27-.56 2.3-1.616 2.897-2.9 1.221.25 2.623.067 3.894-.57 1.192-.597 2.07-1.5 2.54-2.556 1.128.104 2.334-.264 3.413-1.09 1.541-1.178 2.247-2.918 2.047-4.634l3.964-2.193c1.16 1.573 3.005 2.572 5.016 2.572h4.564c.864 0 1.563-.7 1.563-1.563v-31.25c0-.51-.249-.987-.667-1.28z"/></defs><g><g transform="translate(-403 -846)"><use fill="#585858" xlink:href="#7sooa"/></g></g></svg>