<svg xmlns="http://www.w3.org/2000/svg" xmlns:xlink="http://www.w3.org/1999/xlink" width="64" height="63" viewBox="0 0 64 63"><defs><path id="9gjta" d="M848.48 881.958l-6.36-8.478 21.06-11.7 6.297 7.346zm13.928 2.915c0 .555-.298 1.072-.779 1.35l-20.03 11.565v-21.67l5.826 7.767a.998.998 0 0 0 1.321.254l13.662-8.35zm-42.965 1.315a1.444 1.444 0 0 1-.718-1.244v-8.469l13.83 7.684a1 1 0 0 0 1.288-.277l5.757-7.742v21.686zm-1.309-24.38l20.968 11.648-6.341 8.53-21.007-11.672zm14.743-21.558l6.15 6.15-21.071 12.878-7.234-6.2zm15.519-.01l21.048 11.692-6.24 7.28-21.002-12.834zm-6.796 8.115l19.823 12.114-19.823 11.014zm-2 23.09l-19.757-10.976 19.757-12.074zm32.159-2.728l-7.034-8.207 7.034-8.207a.997.997 0 0 0-.273-1.525l-22.776-12.652a1 1 0 0 0-1.19.164l-6.917 6.858-6.855-6.855a1 1 0 0 0-1.208-.158l-24.04 13.918a1.001 1.001 0 0 0-.15 1.624l8.146 6.982-7.03 9.373a.997.997 0 0 0 .315 1.474l7.004 3.891a.977.977 0 0 0-.06.296v9.251a3.45 3.45 0 0 0 1.717 2.976l20.35 11.748a3.557 3.557 0 0 0 1.775.474l.017-.001c.006 0 .01.003.016.003.01 0 .02-.006.03-.006a3.556 3.556 0 0 0 1.713-.47l20.287-11.713a3.573 3.573 0 0 0 1.778-3.082v-10.305l7.114-4.347a1 1 0 0 0 .237-1.504z"/></defs><g><g transform="translate(-808 -838)"><use fill="#585858" xlink:href="#9gjta"/></g></g></svg>