<svg xmlns="http://www.w3.org/2000/svg" xmlns:xlink="http://www.w3.org/1999/xlink" width="47" height="72" viewBox="0 0 47 72"><defs><path id="ahx3a" d="M1243.557 898.376l-1.017-2.984a4.565 4.565 0 0 0 2.17-.745 3.498 3.498 0 0 1-1.153 3.729zm-18.365-33.969v-1.915a1.149 1.149 0 0 0-2.298 0v1.915h-4.357l3.385-9.927a3.429 3.429 0 0 0 2.12.733c.8 0 1.536-.275 2.122-.733l3.384 9.927h-4.356zm-1.15-22.981a4.601 4.601 0 0 1 4.596 4.595 4.59 4.59 0 0 1-1.84 3.677 3.443 3.443 0 0 0-5.511 0 4.59 4.59 0 0 1-1.84-3.677 4.601 4.601 0 0 1 4.596-4.595zm1.15 10.34a1.15 1.15 0 0 1-2.298 0 1.151 1.151 0 0 1 1.149-1.149 1.15 1.15 0 0 1 1.149 1.149zm16.652 34.463a4.566 4.566 0 0 0-2.176.739l-11.968-35.103a6.882 6.882 0 0 0 1.85-1.696zm-1.96 4.582a2.3 2.3 0 0 1 2.299-2.298 2.3 2.3 0 0 1 2.298 2.298 2.3 2.3 0 0 1-2.298 2.298 2.3 2.3 0 0 1-2.298-2.298zm6.966 2.982l-.419-1.23a4.598 4.598 0 0 0-1.954-5.731l-6.862-20.127h4.905v.383a1.149 1.149 0 0 0 2.298 0v-3.064a1.149 1.149 0 0 0-2.298 0v.383h-5.688l-5.862-17.193a1.155 1.155 0 0 0-.103-.22c.045-.32.07-.644.07-.973 0-3.41-2.49-6.247-5.745-6.796v-5.076a1.149 1.149 0 0 0-2.298 0v5.076c-3.256.549-5.745 3.387-5.745 6.796 0 .415.038.824.11 1.223l-5.852 17.163h-5.842v-.383a1.149 1.149 0 0 0-2.298 0v3.064a1.149 1.149 0 0 0 2.298 0v-.383h5.059l-3.633 10.656a1.149 1.149 0 1 0 2.174.741l9.477-27.795a6.884 6.884 0 0 0 1.743 1.558l-15.854 46.502c-.4-.326-.727-.739-.94-1.213a3.22 3.22 0 0 1-.05-2.559l.022-.06 4.12-12.083a1.149 1.149 0 1 0-2.175-.741l-1.728 5.066a4.565 4.565 0 0 0-2.4 4.034c0 .641.136 1.272.393 1.854l-.375 1.1a5.497 5.497 0 0 0 .098 4.336 5.692 5.692 0 0 0 2.264 2.529l-.972 2.85a1.149 1.149 0 1 0 2.175.741l3.21-9.417a4.584 4.584 0 0 0 1.967-5.77l7.614-22.33h5.14v1.915a1.149 1.149 0 0 0 2.297 0v-1.915h5.14l7.613 22.33a4.598 4.598 0 0 0 1.967 5.77l3.212 9.417a1.15 1.15 0 1 0 2.174-.741l-.97-2.848c2.3-1.366 3.418-4.215 2.523-6.839z"/></defs><g><g transform="translate(-1201 -833)"><use fill="#585858" xlink:href="#ahx3a"/></g></g></svg>