<svg xmlns="http://www.w3.org/2000/svg" xmlns:xlink="http://www.w3.org/1999/xlink"><defs><path id="35tka" d="M879.753 1436.653a1.27 1.27 0 0 0-1.27 1.27v35.537h-4.522v-17.665a1.27 1.27 0 1 0-2.54 0v17.666h-3.88v-35.538a1.27 1.27 0 1 0-2.54 0v16.204c-2.293-.208-4.094-2.07-4.094-4.327v-12.305c0-2.198.64-4.337 1.848-6.186 2.216-3.388 6.01-5.411 10.15-5.411 4.147 0 7.945 2.028 10.16 5.425a11.278 11.278 0 0 1 1.838 6.172v12.305c0 2.187-1.69 4.002-3.88 4.303v-16.18a1.27 1.27 0 0 0-1.27-1.27zm-12.158-18.204a4.915 4.915 0 0 1 4.91-4.91 4.915 4.915 0 0 1 4.908 4.91 4.915 4.915 0 0 1-4.909 4.91 4.915 4.915 0 0 1-4.91-4.91zm36.18 55.011h-10.902l-.067-31.201a1.27 1.27 0 0 0-1.27-1.267h-.002a1.27 1.27 0 0 0-1.267 1.272l.066 31.196h-3.687l-.033-13.882a1.27 1.27 0 0 0-1.27-1.266h-.003a1.27 1.27 0 0 0-1.266 1.272l.032 13.876h-3.083v-16.803c3.594-.318 6.42-3.271 6.42-6.858v-12.304c0-1.957-.415-3.875-1.21-5.646a10.51 10.51 0 0 1 6.638 2.921c1.965 1.898 3.05 4.421 3.056 7.106l.023 7.226c.002.7.57 1.266 1.27 1.266h.004a1.27 1.27 0 0 0 1.266-1.274l-.024-7.225c-.007-3.377-1.368-6.546-3.831-8.925a12.978 12.978 0 0 0-4.9-2.976 6.699 6.699 0 0 0 2.091-4.878 6.726 6.726 0 0 0-6.718-6.704h-.014a6.74 6.74 0 0 0-3.098.763 1.27 1.27 0 1 0 1.177 2.25 4.184 4.184 0 0 1 6.113 3.696 4.184 4.184 0 0 1-4.169 4.188c-.055 0-.108.005-.16.011l-.204.01a14.45 14.45 0 0 0-7.343-5.257 7.432 7.432 0 0 0 2.543-5.598c0-4.107-3.341-7.449-7.449-7.449-4.107 0-7.449 3.342-7.449 7.449a7.437 7.437 0 0 0 2.774 5.793 14.436 14.436 0 0 0-6.766 5.054 13.455 13.455 0 0 0-.886-.01c-.023-.002-.046-.004-.07-.004a4.184 4.184 0 0 1-4.178-4.179 4.184 4.184 0 0 1 6.17-3.674 1.27 1.27 0 0 0 1.214-2.232 6.73 6.73 0 0 0-3.206-.812 6.726 6.726 0 0 0-6.718 6.718c0 2.017.895 3.828 2.307 5.061-4.8 1.851-8.204 6.413-8.204 11.733v7.2a1.27 1.27 0 1 0 2.54 0v-7.2c0-5.266 4.204-9.598 9.54-10.036a13.783 13.783 0 0 0-1.204 5.634v12.304c0 3.658 2.938 6.657 6.634 6.874v16.787h-3.46v-13.88a1.27 1.27 0 1 0-2.54 0v13.88h-3.12v-31.186a1.27 1.27 0 1 0-2.54 0v31.186H843.27a1.27 1.27 0 1 0 0 2.54h60.505a1.27 1.27 0 1 0 0-2.54z"/><path id="3t4qa" d="M1276.724 1418.616c-.613 0-1.244.08-1.873.235l.484 1.971c3.84-.942 7.189 1.98 7.189 5.627 0 8.542-9.728 14.838-13.783 16.023l.57 1.95c5.15-1.506 15.245-8.54 15.246-17.973 0-4.32-3.514-7.833-7.833-7.833z"/><path id="3t4qb" d="M1233.03 1426.449c0-3.647 3.348-6.573 7.189-5.626l.486-1.972c-5.082-1.25-9.705 2.667-9.705 7.598 0 9.435 10.095 16.468 15.245 17.973l.57-1.95c-4.057-1.186-13.785-7.48-13.785-16.023z"/><path id="3t4qc" d="M1260.285 1457.466a18.662 18.662 0 0 0-5.013.001v-1.63h5.013zm1.015-3.66h-7.044c-.56 0-1.016.455-1.016 1.016v3.855a1.018 1.018 0 0 0 1.23.992c2.092-.452 4.525-.452 6.616 0a1.015 1.015 0 0 0 1.23-.992v-3.855c0-.561-.454-1.015-1.016-1.015z"/><path id="3t4qd" d="M1270.47 1478.969h-25.384v-1.72h25.384zm1.016-3.752h-27.416c-.56 0-1.015.454-1.015 1.016v3.751c0 .562.455 1.016 1.015 1.016h27.416c.562 0 1.016-.454 1.016-1.016v-3.751c0-.562-.454-1.016-1.016-1.016z"/><path id="3t4qe" d="M1268.712 1475.217h-21.868v-12.278h21.868zm1.016-14.31h-23.9c-.56 0-1.015.455-1.015 1.017v14.309c0 .561.455 1.015 1.015 1.015h23.9c.56 0 1.016-.455 1.016-1.015v-14.31c0-.561-.454-1.015-1.016-1.015z"/><path id="3t4qf" d="M1264.65 1471.153h-13.744v-4.152h13.745zm1.016-6.184h-15.775c-.56 0-1.016.454-1.016 1.016v6.184c0 .562.455 1.016 1.016 1.016h15.775c.561 0 1.016-.455 1.016-1.016v-6.184c0-.562-.454-1.016-1.016-1.016z"/><path id="3t4qg" d="M1274.078 1419.794c-.027.609-.059 1.21-.1 1.81-.487 7.26-2.095 13.873-4.648 19.123-.37.76-.767 1.503-1.18 2.204-1.732 2.943-3.745 5.159-5.84 6.434h-8.054-1.009c-2.096-1.276-4.109-3.491-5.84-6.435a31.459 31.459 0 0 1-1.18-2.203c-2.553-5.248-4.16-11.861-4.65-19.124-.039-.598-.073-1.2-.102-1.9-.022-.556-.045-1.111-.056-1.672h32.717c-.01.592-.035 1.177-.058 1.763zm1.6-3.283a1.702 1.702 0 0 0-1.22-.511h-33.36c-.459 0-.891.18-1.216.508a1.715 1.715 0 0 0-.5 1.223c.006.691.034 1.372.065 2.147.025.625.061 1.245.103 1.861.506 7.522 2.182 14.395 4.847 19.876.392.806.816 1.597 1.258 2.346 2.035 3.456 4.366 5.935 6.93 7.37.27.15.59.17.87.058.235.009.501.009.8.009h7.863a1.023 1.023 0 0 0 .853-.065c2.563-1.434 4.895-3.915 6.93-7.37.44-.75.862-1.538 1.256-2.346 2.667-5.484 4.343-12.358 4.849-19.877.04-.616.076-1.234.101-1.864.03-.71.058-1.421.065-2.14a1.699 1.699 0 0 0-.495-1.225z"/><path id="3t4qh" d="M1269.98 1420.398c-.016.319-.035.62-.055.917-.424 6.293-1.856 12.224-4.033 16.7a26.928 26.928 0 0 1-.984 1.839c-1.204 2.043-2.552 3.63-3.9 4.589l1.179 1.655c1.578-1.123 3.123-2.926 4.472-5.213.375-.641.733-1.307 1.06-1.98 2.288-4.708 3.791-10.906 4.233-17.456.02-.31.039-.618.057-.946z"/><path id="3t4qi" d="M1260.93 1453.808h-6.303c-.132-.333-.261-.887-.265-1.093.003-.247.15-.925.295-1.317h6.242c.146.392.293 1.07.296 1.315-.003.208-.133.763-.265 1.095zm.37-4.442h-7.09c-1.71 0-1.879 3.314-1.879 3.348 0 .031.2 3.125 1.925 3.125h7.091c1.68 0 1.879-3.094 1.879-3.125 0-.034-.17-3.348-1.926-3.348z"/><path id="3t4qj" d="M1251.416 1460.907c.628-.472 1.658-.935 3.054-1.238 2.093-.452 4.526-.452 6.615 0 1.397.302 2.427.766 3.055 1.238zm10.099-3.224c-2.373-.51-5.1-.513-7.473 0-3.365.728-5.374 2.314-5.374 4.24 0 .561.455 1.015 1.016 1.015h16.189c.56 0 1.015-.454 1.015-1.016 0-1.926-2.009-3.51-5.373-4.239z"/><path id="oeiya" d="M989.173 1120.346a.623.623 0 0 1-.173-.404c0-.115.058-.288.173-.404l.808-.807c.23-.231.577-.231.807 0l.058.057 3.173 3.404a.279.279 0 0 0 .404 0l7.73-8.019h.059c.23-.23.576-.23.807 0l.808.808c.23.23.23.577 0 .807l-9.23 9.577a.524.524 0 0 1-.405.173.524.524 0 0 1-.404-.173l-4.5-4.846-.115-.173z"/><path id="9gjta" d="M848.48 881.958l-6.36-8.478 21.06-11.7 6.297 7.346zm13.928 2.915c0 .555-.298 1.072-.779 1.35l-20.03 11.565v-21.67l5.826 7.767a.998.998 0 0 0 1.321.254l13.662-8.35zm-42.965 1.315a1.444 1.444 0 0 1-.718-1.244v-8.469l13.83 7.684a1 1 0 0 0 1.288-.277l5.757-7.742v21.686zm-1.309-24.38l20.968 11.648-6.341 8.53-21.007-11.672zm14.743-21.558l6.15 6.15-21.071 12.878-7.234-6.2zm15.519-.01l21.048 11.692-6.24 7.28-21.002-12.834zm-6.796 8.115l19.823 12.114-19.823 11.014zm-2 23.09l-19.757-10.976 19.757-12.074zm32.159-2.728l-7.034-8.207 7.034-8.207a.997.997 0 0 0-.273-1.525l-22.776-12.652a1 1 0 0 0-1.19.164l-6.917 6.858-6.855-6.855a1 1 0 0 0-1.208-.158l-24.04 13.918a1.001 1.001 0 0 0-.15 1.624l8.146 6.982-7.03 9.373a.997.997 0 0 0 .315 1.474l7.004 3.891a.977.977 0 0 0-.06.296v9.251a3.45 3.45 0 0 0 1.717 2.976l20.35 11.748a3.557 3.557 0 0 0 1.775.474l.017-.001c.006 0 .01.003.016.003.01 0 .02-.006.03-.006a3.556 3.556 0 0 0 1.713-.47l20.287-11.713a3.573 3.573 0 0 0 1.778-3.082v-10.305l7.114-4.347a1 1 0 0 0 .237-1.504z"/><path id="ahx3a" d="M1243.557 898.376l-1.017-2.984a4.565 4.565 0 0 0 2.17-.745 3.498 3.498 0 0 1-1.153 3.729zm-18.365-33.969v-1.915a1.149 1.149 0 0 0-2.298 0v1.915h-4.357l3.385-9.927a3.429 3.429 0 0 0 2.12.733c.8 0 1.536-.275 2.122-.733l3.384 9.927h-4.356zm-1.15-22.981a4.601 4.601 0 0 1 4.596 4.595 4.59 4.59 0 0 1-1.84 3.677 3.443 3.443 0 0 0-5.511 0 4.59 4.59 0 0 1-1.84-3.677 4.601 4.601 0 0 1 4.596-4.595zm1.15 10.34a1.15 1.15 0 0 1-2.298 0 1.151 1.151 0 0 1 1.149-1.149 1.15 1.15 0 0 1 1.149 1.149zm16.652 34.463a4.566 4.566 0 0 0-2.176.739l-11.968-35.103a6.882 6.882 0 0 0 1.85-1.696zm-1.96 4.582a2.3 2.3 0 0 1 2.299-2.298 2.3 2.3 0 0 1 2.298 2.298 2.3 2.3 0 0 1-2.298 2.298 2.3 2.3 0 0 1-2.298-2.298zm6.966 2.982l-.419-1.23a4.598 4.598 0 0 0-1.954-5.731l-6.862-20.127h4.905v.383a1.149 1.149 0 0 0 2.298 0v-3.064a1.149 1.149 0 0 0-2.298 0v.383h-5.688l-5.862-17.193a1.155 1.155 0 0 0-.103-.22c.045-.32.07-.644.07-.973 0-3.41-2.49-6.247-5.745-6.796v-5.076a1.149 1.149 0 0 0-2.298 0v5.076c-3.256.549-5.745 3.387-5.745 6.796 0 .415.038.824.11 1.223l-5.852 17.163h-5.842v-.383a1.149 1.149 0 0 0-2.298 0v3.064a1.149 1.149 0 0 0 2.298 0v-.383h5.059l-3.633 10.656a1.149 1.149 0 1 0 2.174.741l9.477-27.795a6.884 6.884 0 0 0 1.743 1.558l-15.854 46.502c-.4-.326-.727-.739-.94-1.213a3.22 3.22 0 0 1-.05-2.559l.022-.06 4.12-12.083a1.149 1.149 0 1 0-2.175-.741l-1.728 5.066a4.565 4.565 0 0 0-2.4 4.034c0 .641.136 1.272.393 1.854l-.375 1.1a5.497 5.497 0 0 0 .098 4.336 5.692 5.692 0 0 0 2.264 2.529l-.972 2.85a1.149 1.149 0 1 0 2.175.741l3.21-9.417a4.584 4.584 0 0 0 1.967-5.77l7.614-22.33h5.14v1.915a1.149 1.149 0 0 0 2.297 0v-1.915h5.14l7.613 22.33a4.598 4.598 0 0 0 1.967 5.77l3.212 9.417a1.15 1.15 0 1 0 2.174-.741l-.97-2.848c2.3-1.366 3.418-4.215 2.523-6.839z"/><path id="7sooa" d="M474.875 881.042zm-3.002 0a3.14 3.14 0 0 1-2.926-2.028l-6.572-17.525a3.103 3.103 0 0 1 .088-2.405 3.105 3.105 0 0 1 1.77-1.63l10.642-3.869v27.457zm-10.243-.127c-2.082-2.785-6.595-6.511-10.992-10.135-2.931-2.415-5.7-4.696-7.47-6.468a1.57 1.57 0 0 0-1.843-.273c-1.591.853-2.308 1.205-4.106 1.385-.479.05-.91.315-1.165.722-1.226 1.944-4.632 2.869-5.712 2.194-.613-.384-.732-.775-.766-1.072-.15-1.33 1.195-3.63 3.427-5.864 5.529-5.529 9.48-6.61 14.594-3.974 4.858 2.505 9.652 3.921 11.665 4.456.058.234.1.47.186.7l6.067 16.18zm-2.68 5.025c-.53.406-1.272.632-1.601.302-.017-.017-.043-.015-.06-.031-.03-.028-.045-.065-.078-.091-1.117-.882-6.121-6.003-9.214-9.228a1.558 1.558 0 0 0-2.208-.048 1.56 1.56 0 0 0-.048 2.208c.726.758 6.554 6.827 8.887 8.95-.175.686-.81 1.11-1.134 1.272-1 .502-2.044.418-2.435.055-.012-.011-.029-.01-.04-.02-.02-.018-.028-.042-.049-.058-1.873-1.497-6.575-6.493-7.638-7.65a1.563 1.563 0 0 0-2.301 2.116c.051.055 4.658 5.025 7.246 7.333-.254.731-.772 1.336-1.437 1.63-.49.218-1.258.33-2.135-.318-2.244-1.903-6.747-6.696-7.632-7.644a1.562 1.562 0 0 0-2.283 2.133c1.05 1.124 4.154 4.413 6.513 6.64-.264.033-.54.05-.803.05-1.035 0-2.812-.66-3.711-1.25-1.096-.72-7.974-5.854-13.914-10.828-.9-.754-2.95-2.296-4.827-3.706a311.4 311.4 0 0 1-2.616-1.977l5.85-15.603c1.52-.066 3.544-.241 5.686-.43 1.212-.107 2.425-.211 3.585-.302-1.782 1.83-4.431 5.106-4.082 8.177.16 1.397.925 2.562 2.214 3.367 2.553 1.598 7.279.258 9.555-2.542 1.47-.212 2.463-.587 3.546-1.124 1.831 1.72 4.286 3.744 6.865 5.87 4.49 3.698 9.578 7.891 10.924 10.243.749 1.308-.29 2.248-.626 2.504zm-46.897-10.051a3.14 3.14 0 0 1-2.927 2.028h-3.001V850.46l10.641 3.87c.79.288 1.42.867 1.77 1.63.353.762.383 1.617.089 2.403zm65.28-25.815a1.55 1.55 0 0 0-1.43-.187l-12.738 4.632a6.204 6.204 0 0 0-3.54 3.256c-.132.286-.218.584-.305.88-2.187-.621-6.252-1.92-10.292-4.002-6.104-3.145-10.768-1.591-14.768 1.46-2.027.04-4.82.28-7.566.521-1.752.155-3.407.297-4.75.379a6.246 6.246 0 0 0-.57-2.362 6.203 6.203 0 0 0-3.54-3.257l-12.737-4.632a1.56 1.56 0 0 0-2.097 1.467v31.25c0 .864.699 1.563 1.563 1.563h4.563a6.284 6.284 0 0 0 4.915-2.394c.621.473 1.358 1.027 2.13 1.607 1.824 1.371 3.82 2.868 4.695 3.602 5.819 4.87 12.813 10.13 14.206 11.046 1.302.854 3.646 1.764 5.428 1.764.697 0 2.453 0 3.686-1.042a5.02 5.02 0 0 0 3.916-.087c1.27-.56 2.3-1.616 2.897-2.9 1.221.25 2.623.067 3.894-.57 1.192-.597 2.07-1.5 2.54-2.556 1.128.104 2.334-.264 3.413-1.09 1.541-1.178 2.247-2.918 2.047-4.634l3.964-2.193c1.16 1.573 3.005 2.572 5.016 2.572h4.564c.864 0 1.563-.7 1.563-1.563v-31.25c0-.51-.249-.987-.667-1.28z"/><path id="txjva" d="M435.375 530.215h1.465c.54 0 .976-.437.976-.977v-1.464a.977.977 0 0 0-.976-.977h-1.465a.976.976 0 0 0-.977.977v1.464c0 .54.438.977.977.977z"/><path id="txjvb" d="M435.375 536.074h1.465c.54 0 .976-.437.976-.976v-1.465a.977.977 0 0 0-.976-.977h-1.465a.976.976 0 0 0-.977.977v1.465c0 .539.438.976.977.976z"/><path id="txjvc" d="M435.375 541.933h1.465c.54 0 .976-.437.976-.976v-1.465a.977.977 0 0 0-.976-.976h-1.465a.977.977 0 0 0-.977.976v1.465c0 .54.438.976.977.976z"/><path id="txjvd" d="M435.375 547.793h1.465c.54 0 .976-.438.976-.977v-1.465a.977.977 0 0 0-.976-.976h-1.465a.977.977 0 0 0-.977.976v1.465c0 .54.438.977.977.977z"/><path id="txjve" d="M440.502 530.215h1.465c.54 0 .976-.437.976-.977v-1.464a.977.977 0 0 0-.976-.977h-1.465a.977.977 0 0 0-.977.977v1.464c0 .54.438.977.977.977z"/><path id="txjvf" d="M440.502 536.074h1.465c.54 0 .976-.437.976-.976v-1.465a.977.977 0 0 0-.976-.977h-1.465a.977.977 0 0 0-.977.977v1.465c0 .539.438.976.977.976z"/><path id="txjvg" d="M440.502 541.933h1.465c.54 0 .976-.437.976-.976v-1.465a.977.977 0 0 0-.976-.976h-1.465a.977.977 0 0 0-.977.976v1.465c0 .54.438.976.977.976z"/><path id="txjvh" d="M440.502 547.793h1.465c.54 0 .976-.438.976-.977v-1.465a.977.977 0 0 0-.976-.976h-1.465a.977.977 0 0 0-.977.976v1.465c0 .54.438.977.977.977z"/><path id="txjvi" d="M445.629 530.215h1.465c.54 0 .976-.437.976-.977v-1.464a.977.977 0 0 0-.976-.977h-1.465a.977.977 0 0 0-.977.977v1.464c0 .54.438.977.977.977z"/><path id="txjvj" d="M445.629 536.074h1.465c.54 0 .976-.437.976-.976v-1.465a.977.977 0 0 0-.976-.977h-1.465a.977.977 0 0 0-.977.977v1.465c0 .539.438.976.977.976z"/><path id="txjvk" d="M445.629 541.933h1.465c.54 0 .976-.437.976-.976v-1.465a.977.977 0 0 0-.976-.976h-1.465a.977.977 0 0 0-.977.976v1.465c0 .54.438.976.977.976z"/><path id="txjvl" d="M445.629 547.793h1.465c.54 0 .976-.438.976-.977v-1.465a.977.977 0 0 0-.976-.976h-1.465a.977.977 0 0 0-.977.976v1.465c0 .54.438.977.977.977z"/><path id="txjvm" d="M454.906 530.215h1.465c.54 0 .977-.437.977-.977v-1.464a.977.977 0 0 0-.977-.977h-1.465a.976.976 0 0 0-.976.977v1.464c0 .54.437.977.976.977z"/><path id="txjvn" d="M454.906 524.356h1.465c.54 0 .977-.438.977-.977v-1.465a.977.977 0 0 0-.977-.976h-1.465a.977.977 0 0 0-.976.976v1.465c0 .54.437.977.976.977z"/><path id="txjvo" d="M454.906 518.497h1.465c.54 0 .977-.438.977-.977v-1.465a.977.977 0 0 0-.977-.977h-1.465a.977.977 0 0 0-.976.977v1.465c0 .54.437.977.976.977z"/><path id="txjvp" d="M454.906 536.074h1.465c.54 0 .977-.437.977-.976v-1.465a.977.977 0 0 0-.977-.977h-1.465a.976.976 0 0 0-.976.977v1.465c0 .539.437.976.976.976z"/><path id="txjvq" d="M454.906 541.933h1.465c.54 0 .977-.437.977-.976v-1.465a.977.977 0 0 0-.977-.976h-1.465a.977.977 0 0 0-.976.976v1.465c0 .54.437.976.976.976z"/><path id="txjvr" d="M454.906 547.793h1.465c.54 0 .977-.438.977-.977v-1.465a.977.977 0 0 0-.977-.976h-1.465a.977.977 0 0 0-.976.976v1.465c0 .54.437.977.976.977z"/><path id="txjvs" d="M460.033 530.215h1.465c.54 0 .976-.437.976-.977v-1.464a.977.977 0 0 0-.976-.977h-1.465a.977.977 0 0 0-.976.977v1.464c0 .54.437.977.976.977z"/><path id="txjvt" d="M460.033 524.356h1.465c.54 0 .976-.438.976-.977v-1.465a.977.977 0 0 0-.976-.976h-1.465a.977.977 0 0 0-.976.976v1.465c0 .54.437.977.976.977z"/><path id="txjvu" d="M460.033 518.497h1.465c.54 0 .976-.438.976-.977v-1.465a.977.977 0 0 0-.976-.977h-1.465a.977.977 0 0 0-.976.977v1.465c0 .54.437.977.976.977z"/><path id="txjvv" d="M460.033 536.074h1.465c.54 0 .976-.437.976-.976v-1.465a.977.977 0 0 0-.976-.977h-1.465a.977.977 0 0 0-.976.977v1.465c0 .539.437.976.976.976z"/><path id="txjvw" d="M460.033 541.933h1.465c.54 0 .976-.437.976-.976v-1.465a.977.977 0 0 0-.976-.976h-1.465a.977.977 0 0 0-.976.976v1.465c0 .54.437.976.976.976z"/><path id="txjvx" d="M460.033 547.793h1.465c.54 0 .976-.438.976-.977v-1.465a.977.977 0 0 0-.976-.976h-1.465a.977.977 0 0 0-.976.976v1.465c0 .54.437.977.976.977z"/><path id="txjvy" d="M465.16 530.215h1.465c.539 0 .976-.437.976-.977v-1.464a.977.977 0 0 0-.976-.977h-1.465a.977.977 0 0 0-.977.977v1.464c0 .54.438.977.977.977z"/><path id="txjvz" d="M465.16 524.356h1.465c.539 0 .976-.438.976-.977v-1.465a.977.977 0 0 0-.976-.976h-1.465a.977.977 0 0 0-.977.976v1.465c0 .54.438.977.977.977z"/><path id="txjvA" d="M465.16 518.497h1.465c.539 0 .976-.438.976-.977v-1.465a.977.977 0 0 0-.976-.977h-1.465a.977.977 0 0 0-.977.977v1.465c0 .54.438.977.977.977z"/><path id="txjvB" d="M465.16 536.074h1.465c.539 0 .976-.437.976-.976v-1.465a.977.977 0 0 0-.976-.977h-1.465a.977.977 0 0 0-.977.977v1.465c0 .539.438.976.977.976z"/><path id="txjvC" d="M465.16 541.933h1.465c.539 0 .976-.437.976-.976v-1.465a.977.977 0 0 0-.976-.976h-1.465a.977.977 0 0 0-.977.976v1.465c0 .54.438.976.977.976z"/><path id="txjvD" d="M465.16 547.793h1.465c.539 0 .976-.438.976-.977v-1.465a.977.977 0 0 0-.976-.976h-1.465a.977.977 0 0 0-.977.976v1.465c0 .54.438.977.977.977z"/><path id="txjvE" d="M437.305 554.14a.977.977 0 0 0 0 1.954h.023a.977.977 0 0 0 0-1.953z"/><path id="txjvF" d="M456.836 554.14a.977.977 0 0 0 0 1.954h.023a.977.977 0 0 0 0-1.953z"/><path id="txjvG" d="M427 558.047h-.023a.977.977 0 1 0 0 1.953H427a.977.977 0 0 0 0-1.953z"/><path id="txjvH" d="M475.023 558.047H475a.977.977 0 0 0 0 1.953h.023a.977.977 0 0 0 0-1.953z"/><path id="txjvI" d="M469.554 558.047h-1.953v-4.883a.977.977 0 0 0-.976-.976h-5.86a.977.977 0 0 0-.976.976v4.883h-7.813v-1.953h2.054a.977.977 0 1 0 0-1.953h-2.054v-42.188h17.578zm-3.906 0h-3.906v-3.906h3.906zm-15.625 0h-1.953v-4.883a.977.977 0 0 0-.976-.976h-5.86a.977.977 0 0 0-.976.976v4.883h-7.813v-1.953h2.054a.977.977 0 0 0 0-1.953h-2.054v-29.297h17.578zm-3.906 0h-3.906v-3.906h3.906zm25.39 0v-47.07a.977.977 0 0 0-.976-.977H451a.976.976 0 0 0-.977.977v11.914H431.47a.977.977 0 0 0-.977.977v34.179h-.687a.977.977 0 0 0 0 1.953h42.39a.977.977 0 0 0 0-1.953z"/><path id="cifma" d="M746.143 558.119l-3.113-1.13 3.965-10.86 3.113 1.13zm-5.428-3.534l-4.75 1.598-16.734-6.072a1.744 1.744 0 0 1-1.19-1.822 1.66 1.66 0 0 1 2.208-1.32l5.375 1.948c.002.152.014.304.037.455a3.326 3.326 0 0 0 3.835 2.678l9.324-1.638-.288-1.626-9.32 1.639a1.668 1.668 0 0 1-1.919-1.334 1.524 1.524 0 0 1 .004-.57.824.824 0 0 0 .014-.082c.011-.07.03-.14.057-.206a1.662 1.662 0 0 1 1.27-1.062l11.035-1.94 5.201 1.886-2.832 7.76-.779-.281a.834.834 0 0 0-.548-.011zm10.74-8.593l-4.67-1.694a.829.829 0 0 0-1.061.495l-.284.776-5.41-1.967a.803.803 0 0 0-.425-.037l-11.255 1.981a3.32 3.32 0 0 0-2.37 1.745l-5.164-1.877a3.29 3.29 0 0 0-2.531.112 3.31 3.31 0 0 0-1.88 2.51 3.373 3.373 0 0 0 2.26 3.625l17.007 6.17a.81.81 0 0 0 .548.007l4.75-1.599.505.183-.283.776a.825.825 0 0 0 .497 1.058l4.67 1.694a.827.827 0 0 0 1.06-.493l4.533-12.412a.825.825 0 0 0-.498-1.053z"/><path id="cifmb" d="M720.22 521.557c0 1.25-2.051 2.477-4.14 2.477-2.09 0-4.142-1.227-4.142-2.477a.827.827 0 0 0-.828-.825h-.828v-6.604h.828a.82.82 0 0 0 .327-.067l5.636-2.41h8.539a4.122 4.122 0 0 1 2.932 1.209l6.738 6.716c.545.507.667 1.321.296 1.965-.277.437-.76.699-1.278.693h-.04c.026-.225.039-.45.04-.677-.004-3.645-2.968-6.6-6.626-6.604a6.573 6.573 0 0 0-3.18.826h-6.758v1.65h9.11c.915 0 1.656.74 1.656 1.652 0 .911-.741 1.65-1.656 1.65h-5.797a.827.827 0 0 0-.829.826zm9.9-2.857a3.267 3.267 0 0 0-.821-1.816 4.957 4.957 0 0 1 3.326 4.316zm1.484 5.89zm-3.93-1.382a9.044 9.044 0 0 0-3.923 1.378 4.828 4.828 0 0 1-.972-2.203h4.067a3.23 3.23 0 0 0 2.893-1.726l2.32 2.31c.092.087.19.167.293.241a4.73 4.73 0 0 1-.748 1.381 9.06 9.06 0 0 0-3.93-1.38zm3.313 7.43c0 .456-.37.825-.828.825h-4.97a.827.827 0 0 1-.828-.825v-3.37a6.528 6.528 0 0 0 1.787.71 1.668 1.668 0 0 0 3.193-.402 1.661 1.661 0 0 0-.998-1.759 1.67 1.67 0 0 0-1.963.502 4.92 4.92 0 0 1-1.325-.564 6.517 6.517 0 0 1 2.62-.896 7.778 7.778 0 0 1 3.312 1.283zm-2.485 10.221l-.828.413-.828-.413v-7.745h1.656zm-19.876-17.65h-4.97V511.65h4.97zm12.665.107c.268.976.76 1.875 1.44 2.626a1.58 1.58 0 0 0-.026.2v4.496a2.48 2.48 0 0 0 2.485 2.476v8.255a.825.825 0 0 0 .457.743l1.657.826a.83.83 0 0 0 .74 0l1.657-.826a.825.825 0 0 0 .458-.743v-8.255a2.48 2.48 0 0 0 2.484-2.476v-4.496a1.67 1.67 0 0 0-.027-.215 6.393 6.393 0 0 0 1.27-2.082 3.029 3.029 0 0 0 3.089-1.413 3.251 3.251 0 0 0-.52-4.023l-6.74-6.717a5.77 5.77 0 0 0-4.1-1.692h-8.707a.818.818 0 0 0-.327.067l-5.637 2.41h-.662v-1.651a.827.827 0 0 0-.828-.826h-6.626a.827.827 0 0 0-.828.826v13.208c0 .456.37.825.828.825h6.626c.457 0 .828-.37.828-.825v-1.651h.12c.594 1.98 3.257 3.302 5.677 3.302a6.617 6.617 0 0 0 5.212-2.369z"/><path id="sdnfa" d="M1353.214 4209.821h-8.035v-8.035c0-.986-.8-1.786-1.786-1.786h-1.786c-.986 0-1.786.8-1.786 1.786v8.035h-8.035c-.986 0-1.786.8-1.786 1.786v1.786c0 .986.8 1.786 1.786 1.786h8.035v8.035c0 .986.8 1.786 1.786 1.786h1.786c.986 0 1.786-.8 1.786-1.786v-8.035h8.035c.986 0 1.786-.8 1.786-1.786v-1.786c0-.986-.8-1.786-1.786-1.786z"/></defs><symbol id="people" viewBox="0 0 63 65"><g><g transform="translate(-842 -1411)"><use xlink:href="#35tka"/></g></g></symbol><symbol id="trophy" viewBox="0 0 54 65"><g><g transform="translate(-1231 -1416)"><g><g><g><use xlink:href="#3t4qa"/></g></g></g><g><g><g><use xlink:href="#3t4qb"/></g></g></g><g><g><g><use xlink:href="#3t4qc"/></g></g></g><g><g><g><use xlink:href="#3t4qd"/></g></g></g><g><g><g><use xlink:href="#3t4qe"/></g></g></g><g><g><g><use xlink:href="#3t4qf"/></g></g></g><g><g><g><use xlink:href="#3t4qg"/></g></g></g><g><g><g><use xlink:href="#3t4qh"/></g></g></g><g><g><g><use xlink:href="#3t4qi"/></g></g></g><g><g><g><use xlink:href="#3t4qj"/></g></g></g></g></g></symbol><symbol id="checked" viewBox="0 0 15 12"><g><g transform="translate(-989 -1114)"><use xlink:href="#oeiya"/></g></g></symbol><symbol id="box" viewBox="0 0 64 63"><g><g transform="translate(-808 -838)"><use xlink:href="#9gjta"/></g></g></symbol><symbol id="compass" viewBox="0 0 47 72"><g><g transform="translate(-1201 -833)"><use xlink:href="#ahx3a"/></g></g></symbol><symbol id="handshake" viewBox="0 0 75 51"><g><g transform="translate(-403 -846)"><use xlink:href="#7sooa"/></g></g></symbol><symbol id="building" viewBox="0 0 50 50"><g><g transform="translate(-426 -510)"><g><use xlink:href="#txjva"/></g><g><use xlink:href="#txjvb"/></g><g><use xlink:href="#txjvc"/></g><g><use xlink:href="#txjvd"/></g><g><use xlink:href="#txjve"/></g><g><use xlink:href="#txjvf"/></g><g><use xlink:href="#txjvg"/></g><g><use xlink:href="#txjvh"/></g><g><use xlink:href="#txjvi"/></g><g><use xlink:href="#txjvj"/></g><g><use xlink:href="#txjvk"/></g><g><use xlink:href="#txjvl"/></g><g><use xlink:href="#txjvm"/></g><g><use xlink:href="#txjvn"/></g><g><use xlink:href="#txjvo"/></g><g><use xlink:href="#txjvp"/></g><g><use xlink:href="#txjvq"/></g><g><use xlink:href="#txjvr"/></g><g><use xlink:href="#txjvs"/></g><g><use xlink:href="#txjvt"/></g><g><use xlink:href="#txjvu"/></g><g><use xlink:href="#txjvv"/></g><g><use xlink:href="#txjvw"/></g><g><use xlink:href="#txjvx"/></g><g><use xlink:href="#txjvy"/></g><g><use xlink:href="#txjvz"/></g><g><use xlink:href="#txjvA"/></g><g><use xlink:href="#txjvB"/></g><g><use xlink:href="#txjvC"/></g><g><use xlink:href="#txjvD"/></g><g><use xlink:href="#txjvE"/></g><g><use xlink:href="#txjvF"/></g><g><use xlink:href="#txjvG"/></g><g><use xlink:href="#txjvH"/></g><g><use xlink:href="#txjvI"/></g></g></g></symbol><symbol id="keys" viewBox="0 0 50 50"><g><g transform="translate(-702 -510)"><g><use xlink:href="#cifma"/></g><g><use xlink:href="#cifmb"/></g></g></g></symbol><symbol id="plus" viewBox="0 0 25 25"><g><g transform="translate(-1330 -4200)"><use xlink:href="#sdnfa"/></g></g></symbol></svg>