<svg xmlns="http://www.w3.org/2000/svg" xmlns:xlink="http://www.w3.org/1999/xlink" width="50" height="50" viewBox="0 0 50 50"><defs><path id="cifma" d="M746.143 558.119l-3.113-1.13 3.965-10.86 3.113 1.13zm-5.428-3.534l-4.75 1.598-16.734-6.072a1.744 1.744 0 0 1-1.19-1.822 1.66 1.66 0 0 1 2.208-1.32l5.375 1.948c.002.152.014.304.037.455a3.326 3.326 0 0 0 3.835 2.678l9.324-1.638-.288-1.626-9.32 1.639a1.668 1.668 0 0 1-1.919-1.334 1.524 1.524 0 0 1 .004-.57.824.824 0 0 0 .014-.082c.011-.07.03-.14.057-.206a1.662 1.662 0 0 1 1.27-1.062l11.035-1.94 5.201 1.886-2.832 7.76-.779-.281a.834.834 0 0 0-.548-.011zm10.74-8.593l-4.67-1.694a.829.829 0 0 0-1.061.495l-.284.776-5.41-1.967a.803.803 0 0 0-.425-.037l-11.255 1.981a3.32 3.32 0 0 0-2.37 1.745l-5.164-1.877a3.29 3.29 0 0 0-2.531.112 3.31 3.31 0 0 0-1.88 2.51 3.373 3.373 0 0 0 2.26 3.625l17.007 6.17a.81.81 0 0 0 .548.007l4.75-1.599.505.183-.283.776a.825.825 0 0 0 .497 1.058l4.67 1.694a.827.827 0 0 0 1.06-.493l4.533-12.412a.825.825 0 0 0-.498-1.053z"/><path id="cifmb" d="M720.22 521.557c0 1.25-2.051 2.477-4.14 2.477-2.09 0-4.142-1.227-4.142-2.477a.827.827 0 0 0-.828-.825h-.828v-6.604h.828a.82.82 0 0 0 .327-.067l5.636-2.41h8.539a4.122 4.122 0 0 1 2.932 1.209l6.738 6.716c.545.507.667 1.321.296 1.965-.277.437-.76.699-1.278.693h-.04c.026-.225.039-.45.04-.677-.004-3.645-2.968-6.6-6.626-6.604a6.573 6.573 0 0 0-3.18.826h-6.758v1.65h9.11c.915 0 1.656.74 1.656 1.652 0 .911-.741 1.65-1.656 1.65h-5.797a.827.827 0 0 0-.829.826zm9.9-2.857a3.267 3.267 0 0 0-.821-1.816 4.957 4.957 0 0 1 3.326 4.316zm1.484 5.89zm-3.93-1.382a9.044 9.044 0 0 0-3.923 1.378 4.828 4.828 0 0 1-.972-2.203h4.067a3.23 3.23 0 0 0 2.893-1.726l2.32 2.31c.092.087.19.167.293.241a4.73 4.73 0 0 1-.748 1.381 9.06 9.06 0 0 0-3.93-1.38zm3.313 7.43c0 .456-.37.825-.828.825h-4.97a.827.827 0 0 1-.828-.825v-3.37a6.528 6.528 0 0 0 1.787.71 1.668 1.668 0 0 0 3.193-.402 1.661 1.661 0 0 0-.998-1.759 1.67 1.67 0 0 0-1.963.502 4.92 4.92 0 0 1-1.325-.564 6.517 6.517 0 0 1 2.62-.896 7.778 7.778 0 0 1 3.312 1.283zm-2.485 10.221l-.828.413-.828-.413v-7.745h1.656zm-19.876-17.65h-4.97V511.65h4.97zm12.665.107c.268.976.76 1.875 1.44 2.626a1.58 1.58 0 0 0-.026.2v4.496a2.48 2.48 0 0 0 2.485 2.476v8.255a.825.825 0 0 0 .457.743l1.657.826a.83.83 0 0 0 .74 0l1.657-.826a.825.825 0 0 0 .458-.743v-8.255a2.48 2.48 0 0 0 2.484-2.476v-4.496a1.67 1.67 0 0 0-.027-.215 6.393 6.393 0 0 0 1.27-2.082 3.029 3.029 0 0 0 3.089-1.413 3.251 3.251 0 0 0-.52-4.023l-6.74-6.717a5.77 5.77 0 0 0-4.1-1.692h-8.707a.818.818 0 0 0-.327.067l-5.637 2.41h-.662v-1.651a.827.827 0 0 0-.828-.826h-6.626a.827.827 0 0 0-.828.826v13.208c0 .456.37.825.828.825h6.626c.457 0 .828-.37.828-.825v-1.651h.12c.594 1.98 3.257 3.302 5.677 3.302a6.617 6.617 0 0 0 5.212-2.369z"/></defs><g><g transform="translate(-702 -510)"><g><use fill="#585858" xlink:href="#cifma"/></g><g><use fill="#585858" xlink:href="#cifmb"/></g></g></g></svg>