<svg xmlns="http://www.w3.org/2000/svg" xmlns:xlink="http://www.w3.org/1999/xlink" width="25" height="25" viewBox="0 0 25 25"><defs><path id="sdnfa" d="M1353.214 4209.821h-8.035v-8.035c0-.986-.8-1.786-1.786-1.786h-1.786c-.986 0-1.786.8-1.786 1.786v8.035h-8.035c-.986 0-1.786.8-1.786 1.786v1.786c0 .986.8 1.786 1.786 1.786h8.035v8.035c0 .986.8 1.786 1.786 1.786h1.786c.986 0 1.786-.8 1.786-1.786v-8.035h8.035c.986 0 1.786-.8 1.786-1.786v-1.786c0-.986-.8-1.786-1.786-1.786z"/></defs><g><g transform="translate(-1330 -4200)"><use fill="#d3d3d3" xlink:href="#sdnfa"/></g></g></svg>