<svg xmlns="http://www.w3.org/2000/svg" xmlns:xlink="http://www.w3.org/1999/xlink" width="63" height="65" viewBox="0 0 63 65"><defs><path id="35tka" d="M879.753 1436.653a1.27 1.27 0 0 0-1.27 1.27v35.537h-4.522v-17.665a1.27 1.27 0 1 0-2.54 0v17.666h-3.88v-35.538a1.27 1.27 0 1 0-2.54 0v16.204c-2.293-.208-4.094-2.07-4.094-4.327v-12.305c0-2.198.64-4.337 1.848-6.186 2.216-3.388 6.01-5.411 10.15-5.411 4.147 0 7.945 2.028 10.16 5.425a11.278 11.278 0 0 1 1.838 6.172v12.305c0 2.187-1.69 4.002-3.88 4.303v-16.18a1.27 1.27 0 0 0-1.27-1.27zm-12.158-18.204a4.915 4.915 0 0 1 4.91-4.91 4.915 4.915 0 0 1 4.908 4.91 4.915 4.915 0 0 1-4.909 4.91 4.915 4.915 0 0 1-4.91-4.91zm36.18 55.011h-10.902l-.067-31.201a1.27 1.27 0 0 0-1.27-1.267h-.002a1.27 1.27 0 0 0-1.267 1.272l.066 31.196h-3.687l-.033-13.882a1.27 1.27 0 0 0-1.27-1.266h-.003a1.27 1.27 0 0 0-1.266 1.272l.032 13.876h-3.083v-16.803c3.594-.318 6.42-3.271 6.42-6.858v-12.304c0-1.957-.415-3.875-1.21-5.646a10.51 10.51 0 0 1 6.638 2.921c1.965 1.898 3.05 4.421 3.056 7.106l.023 7.226c.002.7.57 1.266 1.27 1.266h.004a1.27 1.27 0 0 0 1.266-1.274l-.024-7.225c-.007-3.377-1.368-6.546-3.831-8.925a12.978 12.978 0 0 0-4.9-2.976 6.699 6.699 0 0 0 2.091-4.878 6.726 6.726 0 0 0-6.718-6.704h-.014a6.74 6.74 0 0 0-3.098.763 1.27 1.27 0 1 0 1.177 2.25 4.184 4.184 0 0 1 6.113 3.696 4.184 4.184 0 0 1-4.169 4.188c-.055 0-.108.005-.16.011l-.204.01a14.45 14.45 0 0 0-7.343-5.257 7.432 7.432 0 0 0 2.543-5.598c0-4.107-3.341-7.449-7.449-7.449-4.107 0-7.449 3.342-7.449 7.449a7.437 7.437 0 0 0 2.774 5.793 14.436 14.436 0 0 0-6.766 5.054 13.455 13.455 0 0 0-.886-.01c-.023-.002-.046-.004-.07-.004a4.184 4.184 0 0 1-4.178-4.179 4.184 4.184 0 0 1 6.17-3.674 1.27 1.27 0 0 0 1.214-2.232 6.73 6.73 0 0 0-3.206-.812 6.726 6.726 0 0 0-6.718 6.718c0 2.017.895 3.828 2.307 5.061-4.8 1.851-8.204 6.413-8.204 11.733v7.2a1.27 1.27 0 1 0 2.54 0v-7.2c0-5.266 4.204-9.598 9.54-10.036a13.783 13.783 0 0 0-1.204 5.634v12.304c0 3.658 2.938 6.657 6.634 6.874v16.787h-3.46v-13.88a1.27 1.27 0 1 0-2.54 0v13.88h-3.12v-31.186a1.27 1.27 0 1 0-2.54 0v31.186H843.27a1.27 1.27 0 1 0 0 2.54h60.505a1.27 1.27 0 1 0 0-2.54z"/></defs><g><g transform="translate(-842 -1411)"><use fill="#585858" xlink:href="#35tka"/></g></g></svg>