<svg xmlns="http://www.w3.org/2000/svg" xmlns:xlink="http://www.w3.org/1999/xlink" width="15" height="12" viewBox="0 0 15 12"><defs><path id="oeiya" d="M989.173 1120.346a.623.623 0 0 1-.173-.404c0-.115.058-.288.173-.404l.808-.807c.23-.231.577-.231.807 0l.058.057 3.173 3.404a.279.279 0 0 0 .404 0l7.73-8.019h.059c.23-.23.576-.23.807 0l.808.808c.23.23.23.577 0 .807l-9.23 9.577a.524.524 0 0 1-.405.173.524.524 0 0 1-.404-.173l-4.5-4.846-.115-.173z"/></defs><g><g transform="translate(-989 -1114)"><use fill="#f2c736" xlink:href="#oeiya"/></g></g></svg>