<svg xmlns="http://www.w3.org/2000/svg" xmlns:xlink="http://www.w3.org/1999/xlink" width="40" height="55" viewBox="0 0 40 55"><defs><path id="kzyga" d="M960 2947.388c-5.729 0-10.39-4.66-10.39-10.388 0-5.729 4.661-10.39 10.39-10.39 5.727 0 10.388 4.661 10.388 10.39 0 5.728-4.66 10.388-10.389 10.388zm0-30.388c-11.028 0-20 8.972-20 20 0 2.877.589 5.623 1.75 8.164 5 10.942 14.587 22.494 17.407 25.774a1.113 1.113 0 0 0 1.686 0c2.819-3.279 12.406-14.83 17.408-25.774 1.161-2.54 1.75-5.287 1.75-8.164-.002-11.028-8.974-20-20.002-20z"/></defs><g><g transform="translate(-940 -2917)"><use fill="#e80000" xlink:href="#kzyga"/></g></g></svg>