<svg xmlns="http://www.w3.org/2000/svg" xmlns:xlink="http://www.w3.org/1999/xlink" width="50" height="50" viewBox="0 0 50 50"><defs><path id="txjva" d="M435.375 530.215h1.465c.54 0 .976-.437.976-.977v-1.464a.977.977 0 0 0-.976-.977h-1.465a.976.976 0 0 0-.977.977v1.464c0 .54.438.977.977.977z"/><path id="txjvb" d="M435.375 536.074h1.465c.54 0 .976-.437.976-.976v-1.465a.977.977 0 0 0-.976-.977h-1.465a.976.976 0 0 0-.977.977v1.465c0 .539.438.976.977.976z"/><path id="txjvc" d="M435.375 541.933h1.465c.54 0 .976-.437.976-.976v-1.465a.977.977 0 0 0-.976-.976h-1.465a.977.977 0 0 0-.977.976v1.465c0 .54.438.976.977.976z"/><path id="txjvd" d="M435.375 547.793h1.465c.54 0 .976-.438.976-.977v-1.465a.977.977 0 0 0-.976-.976h-1.465a.977.977 0 0 0-.977.976v1.465c0 .54.438.977.977.977z"/><path id="txjve" d="M440.502 530.215h1.465c.54 0 .976-.437.976-.977v-1.464a.977.977 0 0 0-.976-.977h-1.465a.977.977 0 0 0-.977.977v1.464c0 .54.438.977.977.977z"/><path id="txjvf" d="M440.502 536.074h1.465c.54 0 .976-.437.976-.976v-1.465a.977.977 0 0 0-.976-.977h-1.465a.977.977 0 0 0-.977.977v1.465c0 .539.438.976.977.976z"/><path id="txjvg" d="M440.502 541.933h1.465c.54 0 .976-.437.976-.976v-1.465a.977.977 0 0 0-.976-.976h-1.465a.977.977 0 0 0-.977.976v1.465c0 .54.438.976.977.976z"/><path id="txjvh" d="M440.502 547.793h1.465c.54 0 .976-.438.976-.977v-1.465a.977.977 0 0 0-.976-.976h-1.465a.977.977 0 0 0-.977.976v1.465c0 .54.438.977.977.977z"/><path id="txjvi" d="M445.629 530.215h1.465c.54 0 .976-.437.976-.977v-1.464a.977.977 0 0 0-.976-.977h-1.465a.977.977 0 0 0-.977.977v1.464c0 .54.438.977.977.977z"/><path id="txjvj" d="M445.629 536.074h1.465c.54 0 .976-.437.976-.976v-1.465a.977.977 0 0 0-.976-.977h-1.465a.977.977 0 0 0-.977.977v1.465c0 .539.438.976.977.976z"/><path id="txjvk" d="M445.629 541.933h1.465c.54 0 .976-.437.976-.976v-1.465a.977.977 0 0 0-.976-.976h-1.465a.977.977 0 0 0-.977.976v1.465c0 .54.438.976.977.976z"/><path id="txjvl" d="M445.629 547.793h1.465c.54 0 .976-.438.976-.977v-1.465a.977.977 0 0 0-.976-.976h-1.465a.977.977 0 0 0-.977.976v1.465c0 .54.438.977.977.977z"/><path id="txjvm" d="M454.906 530.215h1.465c.54 0 .977-.437.977-.977v-1.464a.977.977 0 0 0-.977-.977h-1.465a.976.976 0 0 0-.976.977v1.464c0 .54.437.977.976.977z"/><path id="txjvn" d="M454.906 524.356h1.465c.54 0 .977-.438.977-.977v-1.465a.977.977 0 0 0-.977-.976h-1.465a.977.977 0 0 0-.976.976v1.465c0 .54.437.977.976.977z"/><path id="txjvo" d="M454.906 518.497h1.465c.54 0 .977-.438.977-.977v-1.465a.977.977 0 0 0-.977-.977h-1.465a.977.977 0 0 0-.976.977v1.465c0 .54.437.977.976.977z"/><path id="txjvp" d="M454.906 536.074h1.465c.54 0 .977-.437.977-.976v-1.465a.977.977 0 0 0-.977-.977h-1.465a.976.976 0 0 0-.976.977v1.465c0 .539.437.976.976.976z"/><path id="txjvq" d="M454.906 541.933h1.465c.54 0 .977-.437.977-.976v-1.465a.977.977 0 0 0-.977-.976h-1.465a.977.977 0 0 0-.976.976v1.465c0 .54.437.976.976.976z"/><path id="txjvr" d="M454.906 547.793h1.465c.54 0 .977-.438.977-.977v-1.465a.977.977 0 0 0-.977-.976h-1.465a.977.977 0 0 0-.976.976v1.465c0 .54.437.977.976.977z"/><path id="txjvs" d="M460.033 530.215h1.465c.54 0 .976-.437.976-.977v-1.464a.977.977 0 0 0-.976-.977h-1.465a.977.977 0 0 0-.976.977v1.464c0 .54.437.977.976.977z"/><path id="txjvt" d="M460.033 524.356h1.465c.54 0 .976-.438.976-.977v-1.465a.977.977 0 0 0-.976-.976h-1.465a.977.977 0 0 0-.976.976v1.465c0 .54.437.977.976.977z"/><path id="txjvu" d="M460.033 518.497h1.465c.54 0 .976-.438.976-.977v-1.465a.977.977 0 0 0-.976-.977h-1.465a.977.977 0 0 0-.976.977v1.465c0 .54.437.977.976.977z"/><path id="txjvv" d="M460.033 536.074h1.465c.54 0 .976-.437.976-.976v-1.465a.977.977 0 0 0-.976-.977h-1.465a.977.977 0 0 0-.976.977v1.465c0 .539.437.976.976.976z"/><path id="txjvw" d="M460.033 541.933h1.465c.54 0 .976-.437.976-.976v-1.465a.977.977 0 0 0-.976-.976h-1.465a.977.977 0 0 0-.976.976v1.465c0 .54.437.976.976.976z"/><path id="txjvx" d="M460.033 547.793h1.465c.54 0 .976-.438.976-.977v-1.465a.977.977 0 0 0-.976-.976h-1.465a.977.977 0 0 0-.976.976v1.465c0 .54.437.977.976.977z"/><path id="txjvy" d="M465.16 530.215h1.465c.539 0 .976-.437.976-.977v-1.464a.977.977 0 0 0-.976-.977h-1.465a.977.977 0 0 0-.977.977v1.464c0 .54.438.977.977.977z"/><path id="txjvz" d="M465.16 524.356h1.465c.539 0 .976-.438.976-.977v-1.465a.977.977 0 0 0-.976-.976h-1.465a.977.977 0 0 0-.977.976v1.465c0 .54.438.977.977.977z"/><path id="txjvA" d="M465.16 518.497h1.465c.539 0 .976-.438.976-.977v-1.465a.977.977 0 0 0-.976-.977h-1.465a.977.977 0 0 0-.977.977v1.465c0 .54.438.977.977.977z"/><path id="txjvB" d="M465.16 536.074h1.465c.539 0 .976-.437.976-.976v-1.465a.977.977 0 0 0-.976-.977h-1.465a.977.977 0 0 0-.977.977v1.465c0 .539.438.976.977.976z"/><path id="txjvC" d="M465.16 541.933h1.465c.539 0 .976-.437.976-.976v-1.465a.977.977 0 0 0-.976-.976h-1.465a.977.977 0 0 0-.977.976v1.465c0 .54.438.976.977.976z"/><path id="txjvD" d="M465.16 547.793h1.465c.539 0 .976-.438.976-.977v-1.465a.977.977 0 0 0-.976-.976h-1.465a.977.977 0 0 0-.977.976v1.465c0 .54.438.977.977.977z"/><path id="txjvE" d="M437.305 554.14a.977.977 0 0 0 0 1.954h.023a.977.977 0 0 0 0-1.953z"/><path id="txjvF" d="M456.836 554.14a.977.977 0 0 0 0 1.954h.023a.977.977 0 0 0 0-1.953z"/><path id="txjvG" d="M427 558.047h-.023a.977.977 0 1 0 0 1.953H427a.977.977 0 0 0 0-1.953z"/><path id="txjvH" d="M475.023 558.047H475a.977.977 0 0 0 0 1.953h.023a.977.977 0 0 0 0-1.953z"/><path id="txjvI" d="M469.554 558.047h-1.953v-4.883a.977.977 0 0 0-.976-.976h-5.86a.977.977 0 0 0-.976.976v4.883h-7.813v-1.953h2.054a.977.977 0 1 0 0-1.953h-2.054v-42.188h17.578zm-3.906 0h-3.906v-3.906h3.906zm-15.625 0h-1.953v-4.883a.977.977 0 0 0-.976-.976h-5.86a.977.977 0 0 0-.976.976v4.883h-7.813v-1.953h2.054a.977.977 0 0 0 0-1.953h-2.054v-29.297h17.578zm-3.906 0h-3.906v-3.906h3.906zm25.39 0v-47.07a.977.977 0 0 0-.976-.977H451a.976.976 0 0 0-.977.977v11.914H431.47a.977.977 0 0 0-.977.977v34.179h-.687a.977.977 0 0 0 0 1.953h42.39a.977.977 0 0 0 0-1.953z"/></defs><g><g transform="translate(-426 -510)"><g><use fill="#fff" xlink:href="#txjva"/></g><g><use fill="#fff" xlink:href="#txjvb"/></g><g><use fill="#fff" xlink:href="#txjvc"/></g><g><use fill="#fff" xlink:href="#txjvd"/></g><g><use fill="#fff" xlink:href="#txjve"/></g><g><use fill="#fff" xlink:href="#txjvf"/></g><g><use fill="#fff" xlink:href="#txjvg"/></g><g><use fill="#fff" xlink:href="#txjvh"/></g><g><use fill="#fff" xlink:href="#txjvi"/></g><g><use fill="#fff" xlink:href="#txjvj"/></g><g><use fill="#fff" xlink:href="#txjvk"/></g><g><use fill="#fff" xlink:href="#txjvl"/></g><g><use fill="#fff" xlink:href="#txjvm"/></g><g><use fill="#fff" xlink:href="#txjvn"/></g><g><use fill="#fff" xlink:href="#txjvo"/></g><g><use fill="#fff" xlink:href="#txjvp"/></g><g><use fill="#fff" xlink:href="#txjvq"/></g><g><use fill="#fff" xlink:href="#txjvr"/></g><g><use fill="#fff" xlink:href="#txjvs"/></g><g><use fill="#fff" xlink:href="#txjvt"/></g><g><use fill="#fff" xlink:href="#txjvu"/></g><g><use fill="#fff" xlink:href="#txjvv"/></g><g><use fill="#fff" xlink:href="#txjvw"/></g><g><use fill="#fff" xlink:href="#txjvx"/></g><g><use fill="#fff" xlink:href="#txjvy"/></g><g><use fill="#fff" xlink:href="#txjvz"/></g><g><use fill="#fff" xlink:href="#txjvA"/></g><g><use fill="#fff" xlink:href="#txjvB"/></g><g><use fill="#fff" xlink:href="#txjvC"/></g><g><use fill="#fff" xlink:href="#txjvD"/></g><g><use fill="#fff" xlink:href="#txjvE"/></g><g><use fill="#fff" xlink:href="#txjvF"/></g><g><use fill="#fff" xlink:href="#txjvG"/></g><g><use fill="#fff" xlink:href="#txjvH"/></g><g><use fill="#000000" xlink:href="#txjvI"/></g></g></g></svg>